<svg xmlns="http://www.w3.org/2000/svg" viewBox="0 0 376.5 376.5"><defs><style>.cls-1{fill:none;stroke:#fffaf5;stroke-miterlimit:10;stroke-width:10px;}.cls-2{fill:#fffaf5;}</style></defs><g id="Layer_2" data-name="Layer 2"><circle class="cls-1" cx="188.25" cy="188.25" r="183.25"/></g><g id="Layer_4" data-name="Layer 4"><path class="cls-2" d="M127.51,148.37s63.91,67.91,115.84-11.28c0,0,24.67-39.71,43.47-41.12,0,0-3.49-6.94,2.35-10.83,2.81-1.88,6.67-.94,8,.62,0,0,4.27-6.56,10.32-4.58s5.73,6.56,5.73,6.56,8.85-4.89,14.48.52-1.15,13.44-1.15,13.44-8.23,9.79,4.48,20.73h-12.4s-2.91,14.9-19.69,10.42c0,0-6.92,12.67,6.38,31.33,0,0,46.7,85.53-87.91,135.42,0,0-6.43,15.27-29.46,14.74,0,0-1.83,16.16,22.79,26.94,0,0,16.31,4.66,20,12.82H157.88s-4.08-9.18,13.25-14c0,0,18.21-.43,7.29-15.29,0,0-8-13.7-22.14-19.23,0,0-52.85-3.64-65.53-61.46,0,0-63.65-7.76-41-87.71,0,0,16.71-49.15,59.3-61.27Z" transform="translate(-11.75 -11.75)"/></g></svg>